<svg width="29" height="29" fill="none" xmlns="http://www.w3.org/2000/svg"><g clip-path="url(#clip0)" fill="#8E24AA"><path d="M27.736 16.3c.851-7.03-.408-11.47-2.68-13.478l.001-.001C21.39-.608 9.006-1.115 4.619 2.975c-1.97 2-2.664 4.937-2.74 8.573-.076 3.636-.167 10.448 6.299 12.296h.006l-.006 2.822s-.044 1.144.7 1.374c.85.27 1.235-.26 3.882-3.364 4.425.377 7.823-.486 8.21-.612.893-.294 5.949-.951 6.767-7.763zm-14.54 6.39s-2.801 3.43-3.672 4.32c-.285.289-.598.262-.593-.312 0-.377.021-4.685.021-4.685-5.481-1.543-5.158-7.343-5.099-10.378.06-3.036.626-5.522 2.294-7.196C9.996.896 20.853 1.69 23.619 4.241c3.382 2.943 2.178 11.26 2.185 11.543-.695 5.686-4.792 6.047-5.545 6.293-.322.105-3.31.86-7.063.613z"/><path d="M14.745 5.106c-.457 0-.457.7 0 .706 3.55.027 6.473 2.456 6.505 6.911 0 .47.7.465.695-.006h-.001c-.038-4.8-3.23-7.584-7.199-7.61z"/><path d="M19.414 11.985c-.01.464.69.486.695.016.058-2.647-1.604-4.828-4.728-5.057-.458-.033-.505.673-.049.705 2.71.202 4.137 2.018 4.082 4.336zm-.749 3.011c-.587-.334-1.184-.126-1.431.202l-.517.657c-.263.333-.754.289-.754.289-3.581-.93-4.539-4.61-4.539-4.61s-.044-.498.284-.765l.646-.525c.324-.252.528-.859.199-1.455-.88-1.56-1.47-2.097-1.77-2.51-.317-.389-.792-.476-1.286-.214h-.011c-1.028.59-2.153 1.695-1.793 2.833.614 1.2 1.743 5.022 5.341 7.911 1.691 1.366 4.367 2.766 5.503 3.09l.01.016c1.12.366 2.209-.782 2.79-1.822v-.008c.257-.503.172-.979-.205-1.29-.668-.64-1.675-1.345-2.467-1.799z"/><path d="M15.87 9.548c1.142.065 1.696.65 1.756 1.854.021.47.716.437.695-.033-.076-1.57-.91-2.446-2.413-2.527-.457-.027-.5.679-.037.706z"/></g><defs><clipPath id="clip0"><path fill="#fff" transform="translate(.222 .093)" d="M0 0h28.518v28H0z"/></clipPath></defs></svg>