<svg width="13" height="12" fill="none" xmlns="http://www.w3.org/2000/svg"><path d="M11.821 10.121c-.241.681-1.198 1.246-1.962 1.412-.523.11-1.205.2-3.503-.753-2.938-1.218-4.831-4.204-4.978-4.398C1.236 6.19.19 4.802.19 3.366c0-1.435.729-2.134 1.022-2.434.242-.246.64-.358 1.023-.358.124 0 .235.006.335.011.294.012.441.03.635.494.241.581.829 2.016.899 2.163.071.148.142.348.042.542-.093.2-.176.288-.324.458-.147.17-.287.3-.434.483-.135.159-.288.329-.118.622.17.288.757 1.247 1.623 2.017 1.116.993 2.02 1.311 2.345 1.446.24.1.528.076.704-.111.224-.242.5-.642.782-1.035.2-.283.452-.318.717-.218.27.094 1.699.8 1.993.946.293.148.487.218.559.342.07.123.07.705-.172 1.387z" fill="#FAFAFA"/></svg>