<svg width="29" height="29" viewBox="0 0 29 29" fill="none" xmlns="http://www.w3.org/2000/svg">
<g clip-path="url(#clip0)">
<path d="M27.7365 16.3006C28.5873 9.26907 27.3278 4.8299 25.0558 2.82207L25.057 2.8209C21.39 -0.60793 9.00582 -1.11543 4.61872 2.9749C2.64856 4.97574 1.95461 7.91224 1.87856 11.5476C1.80251 15.1841 1.71221 21.9962 8.17759 23.8442H8.18353L8.17759 26.6664C8.17759 26.6664 8.13363 27.8097 8.87748 28.0396C9.72829 28.3102 10.1133 27.7794 12.7596 24.6761C17.1847 25.0529 20.5831 24.1896 20.9693 24.0636C21.8629 23.7696 26.919 23.1127 27.7365 16.3006ZM13.1957 22.6904C13.1957 22.6904 10.3949 26.1192 9.5239 27.0094C9.23872 27.2987 8.9262 27.2719 8.93096 26.6979C8.93096 26.3211 8.95235 22.0126 8.95235 22.0126C3.47085 20.4702 3.79406 14.6696 3.85347 11.6351C3.91288 8.5994 4.4785 6.11324 6.14684 4.43907C9.99565 0.895903 20.8529 1.68807 23.6192 4.24074C27.001 7.18424 25.7973 15.5002 25.8044 15.7837C25.1093 21.4701 21.0121 21.8306 20.2588 22.0767C19.9367 22.1817 16.9482 22.9366 13.1957 22.6904Z" fill="#8E24AA"/>
<path d="M14.7452 5.10608C14.2877 5.10608 14.2877 5.80608 14.7452 5.81191C18.2946 5.83875 21.2177 8.26775 21.2498 12.7232C21.2498 13.1934 21.9509 13.1876 21.945 12.7174H21.9438C21.9057 7.91658 18.714 5.13291 14.7452 5.10608Z" fill="#8E24AA"/>
<path d="M19.4139 11.9848C19.4032 12.4491 20.1031 12.4713 20.1091 12.0011C20.1673 9.35394 18.5049 7.17344 15.3809 6.9436C14.9234 6.91094 14.8759 7.61677 15.3322 7.64944C18.0415 7.85127 19.4686 9.6666 19.4139 11.9848Z" fill="#8E24AA"/>
<path d="M18.6653 14.996C18.0783 14.6623 17.4806 14.87 17.2335 15.1978L16.7166 15.8546C16.454 16.1883 15.9632 16.144 15.9632 16.144C12.3818 15.2141 11.424 11.5345 11.424 11.5345C11.424 11.5345 11.3801 11.0363 11.708 10.7691L12.3544 10.2441C12.6776 9.99214 12.882 9.38548 12.5529 8.78931C11.6736 7.22948 11.083 6.69164 10.7824 6.27864C10.4663 5.89014 9.99097 5.80264 9.49665 6.06514H9.48596C8.4581 6.65548 7.33281 7.76031 7.69286 8.89781C8.30719 10.0971 9.43605 13.9203 13.0341 16.809C14.725 18.1751 17.401 19.5751 18.537 19.8983L18.5477 19.9146C19.6671 20.281 20.7555 19.133 21.3366 18.0935V18.0853C21.5944 17.5825 21.5089 17.1065 21.1322 16.795C20.4644 16.1556 19.4567 15.4498 18.6653 14.996Z" fill="#8E24AA"/>
<path d="M15.8705 9.54765C17.0124 9.61298 17.5662 10.1986 17.6256 11.4015C17.647 11.8717 18.3421 11.839 18.3207 11.3688C18.2447 9.79848 17.4105 8.92348 15.9085 8.84181C15.451 8.81498 15.4083 9.52081 15.8705 9.54765Z" fill="#8E24AA"/>
</g>
<defs>
<clipPath id="clip0">
<rect width="28.5185" height="28" fill="white" transform="translate(0.222168 0.0928955)"/>
</clipPath>
</defs>
</svg>
