<svg width="19" height="20" viewBox="0 0 19 20" fill="none" xmlns="http://www.w3.org/2000/svg">
<path d="M18.2958 11.5775C18.8925 6.55502 18.0092 3.38419 16.4158 1.95002L16.4167 1.94919C13.845 -0.499979 5.16001 -0.86248 2.08334 2.05919C0.701672 3.48835 0.215005 5.58585 0.161672 8.18252C0.108338 10.78 0.0450051 15.6459 4.57917 16.9659H4.58334L4.57917 18.9817C4.57917 18.9817 4.54834 19.7984 5.07001 19.9625C5.66667 20.1559 5.93667 19.7767 7.79251 17.56C10.8958 17.8292 13.2792 17.2125 13.55 17.1225C14.1767 16.9125 17.7225 16.4434 18.2958 11.5775ZM8.09834 16.1417C8.09834 16.1417 6.13417 18.5909 5.52334 19.2267C5.32334 19.4334 5.10417 19.4142 5.10751 19.0042C5.10751 18.735 5.12251 15.6575 5.12251 15.6575C1.27834 14.5559 1.50501 10.4125 1.54667 8.24502C1.58834 6.07669 1.98501 4.30085 3.15501 3.10502C5.85417 0.574187 13.4683 1.14002 15.4083 2.96335C17.78 5.06585 16.9358 11.0059 16.9408 11.2084C16.4533 15.27 13.58 15.5275 13.0517 15.7034C12.8258 15.7784 10.73 16.3175 8.09834 16.1417Z" fill="white"/>
<path d="M9.18502 3.58081C8.86419 3.58081 8.86419 4.08081 9.18502 4.08498C11.6742 4.10414 13.7242 5.83914 13.7467 9.02165C13.7467 9.35748 14.2384 9.35331 14.2342 9.01748H14.2334C14.2067 5.58831 11.9684 3.59998 9.18502 3.58081Z" fill="white"/>
<path d="M12.4592 8.4942C12.4517 8.82586 12.9425 8.8417 12.9467 8.50586C12.9875 6.61503 11.8217 5.05753 9.63083 4.89336C9.31 4.87003 9.27667 5.3742 9.59667 5.39753C11.4967 5.5417 12.4975 6.83836 12.4592 8.4942Z" fill="white"/>
<path d="M11.9342 10.645C11.5225 10.4067 11.1034 10.555 10.93 10.7892L10.5675 11.2583C10.3834 11.4967 10.0392 11.465 10.0392 11.465C7.52753 10.8008 6.85587 8.17251 6.85587 8.17251C6.85587 8.17251 6.82503 7.81667 7.05503 7.62584L7.50837 7.25084C7.73503 7.07084 7.87836 6.63751 7.64753 6.21167C7.03087 5.09751 6.6167 4.71334 6.40587 4.41834C6.1842 4.14084 5.85087 4.07834 5.5042 4.26584H5.4967C4.77587 4.68751 3.9867 5.47667 4.2392 6.28917C4.67004 7.14584 5.4617 9.87667 7.98503 11.94C9.17086 12.9158 11.0475 13.9158 11.8442 14.1467L11.8517 14.1583C12.6367 14.42 13.4 13.6 13.8075 12.8575V12.8517C13.9884 12.4925 13.9284 12.1525 13.6642 11.93C13.1959 11.4733 12.4892 10.9692 11.9342 10.645Z" fill="white"/>
<path d="M9.97419 6.75336C10.775 6.80002 11.1634 7.21836 11.205 8.07753C11.22 8.41336 11.7075 8.39003 11.6925 8.05419C11.6392 6.93253 11.0542 6.30752 10.0009 6.24919C9.68002 6.23002 9.65002 6.73419 9.97419 6.75336Z" fill="white"/>
</svg>
